<svg width="348.1582885742187px" height="121.45453796386718px" xmlns="http://www.w3.org/2000/svg" viewBox="75.92085571289064 14.272731018066409 348.1582885742187 121.45453796386718" style="background: none;" preserveAspectRatio="xMidYMid"><defs><filter id="editing-extrusion" x="-100%" y="-100%" width="300%" height="300%"><feFlood result="color1" flood-color="#d8ebf9"></feFlood><feConvolveMatrix order="8,8" divisor="1" kernelMatrix="1 0 0 0 0 0 0 0 0 1 0 0 0 0 0 0 0 0 1 0 0 0 0 0 0 0 0 1 0 0 0 0 0 0 0 0 1 0 0 0 0 0 0 0 0 1 0 0 0 0 0 0 0 0 1 0 0 0 0 0 0 0 0 1" in="SourceAlpha" result="extrude"></feConvolveMatrix><feComposite in="color1" in2="extrude" result="comp-extrude" operator="in"></feComposite><feOffset dx="4" dy="4" in="comp-extrude" result="offset-extrude"></feOffset><feMerge><feMergeNode in="offset-extrude"></feMergeNode><feMergeNode in="SourceGraphic"></feMergeNode></feMerge></filter></defs><g filter="url(#editing-extrusion)"><g transform="translate(130.39392578601837, 97.39999961853027)"><path d="M26.05-29.57L26.05-29.57L26.05-29.57Q27.01-31.49 27.01-33.28L27.01-33.28L27.01-33.28Q27.01-35.07 26.82-36.06L26.82-36.06L26.82-36.06Q26.62-37.06 26.18-37.82L26.18-37.82L26.18-37.82Q25.22-39.49 23.30-39.49L23.30-39.49L23.30-39.49Q20.93-39.49 19.01-37.76L19.01-37.76L19.01-37.76Q16.96-35.97 16.96-33.15L16.96-33.15L16.96-33.15Q16.96-31.36 18.21-29.98L18.21-29.98L18.21-29.98Q19.46-28.61 21.38-27.33L21.38-27.33L21.38-27.33Q23.30-26.05 25.47-24.77L25.47-24.77L25.47-24.77Q27.65-23.49 29.57-21.95L29.57-21.95L29.57-21.95Q33.98-18.43 33.98-13.70L33.98-13.70L33.98-13.70Q33.98-10.50 32.29-7.78L32.29-7.78L32.29-7.78Q30.59-5.06 27.78-3.07L27.78-3.07L27.78-3.07Q21.63 1.28 13.50 1.28L13.50 1.28L13.50 1.28Q6.91 1.28 3.52-0.86L3.52-0.86L3.52-0.86Q0.13-3.01 0.13-6.27L0.13-6.27L0.13-6.27Q0.13-12.10 4.67-13.57L4.67-13.57L4.67-13.57Q5.95-14.02 7.90-14.02L7.90-14.02L7.90-14.02Q9.86-14.02 12.10-13.18L12.10-13.18L12.10-13.18Q11.07-10.56 11.07-8.19L11.07-8.19L11.07-8.19Q11.07-3.07 14.72-3.07L14.72-3.07L14.72-3.07Q17.09-3.07 19.04-4.80L19.04-4.80L19.04-4.80Q20.99-6.53 20.99-8.48L20.99-8.48L20.99-8.48Q20.99-10.43 19.74-11.84L19.74-11.84L19.74-11.84Q18.50-13.25 16.64-14.37L16.64-14.37L16.64-14.37Q14.78-15.49 12.64-16.58L12.64-16.58L12.64-16.58Q10.50-17.66 8.64-19.20L8.64-19.20L8.64-19.20Q4.29-22.72 4.29-28.35L4.29-28.35L4.29-28.35Q4.29-32 6.08-34.85L6.08-34.85L6.08-34.85Q7.87-37.70 10.75-39.62L10.75-39.62L10.75-39.62Q16.51-43.52 23.58-43.52L23.58-43.52L23.58-43.52Q30.66-43.52 34.08-41.41L34.08-41.41L34.08-41.41Q37.50-39.30 37.50-35.71L37.50-35.71L37.50-35.71Q37.50-32.58 35.07-30.59L35.07-30.59L35.07-30.59Q32.96-28.93 30.40-28.93L30.40-28.93L30.40-28.93Q27.84-28.93 26.05-29.57ZM52.80 1.28L52.80 1.28L52.80 1.28Q38.72 1.28 38.72-11.97L38.72-11.97L38.72-11.97Q38.72-21.38 43.90-27.46L43.90-27.46L43.90-27.46Q49.41-33.92 58.94-33.92L58.94-33.92L58.94-33.92Q65.86-33.92 69.38-30.72L69.38-30.72L69.38-30.72Q72.90-27.52 72.90-20.80L72.90-20.80L72.90-20.80Q72.90-10.56 67.39-4.61L67.39-4.61L67.39-4.61Q62.02 1.28 52.80 1.28ZM54.46-26.56L54.46-26.56L54.46-26.56Q53.70-24.83 53.09-22.24L53.09-22.24L53.09-22.24Q52.48-19.65 51.71-15.55L51.71-15.55L51.71-15.55Q50.94-11.46 50.94-6.40L50.94-6.40L50.94-6.40Q50.94-4.74 51.49-3.65L51.49-3.65L51.49-3.65Q52.03-2.56 53.50-2.56L53.50-2.56L53.50-2.56Q54.98-2.56 55.90-3.26L55.90-3.26L55.90-3.26Q56.83-3.97 57.54-5.63L57.54-5.63L57.54-5.63Q58.82-8.58 59.84-14.05L59.84-14.05L59.84-14.05Q60.86-19.52 60.96-21.89L60.96-21.89L60.96-21.89Q61.06-24.26 61.06-26.02L61.06-26.02L61.06-26.02Q61.06-27.78 60.54-28.93L60.54-28.93L60.54-28.93Q60.03-30.08 58.59-30.08L58.59-30.08L58.59-30.08Q57.15-30.08 56.19-29.18L56.19-29.18L56.19-29.18Q55.23-28.29 54.46-26.56ZM96.70-17.98L96.70-17.98L96.70-17.98Q99.01-22.08 99.01-26.24L99.01-26.24L99.01-26.24Q99.01-28.99 97.02-28.99L97.02-28.99L97.02-28.99Q95.49-28.99 93.89-26.37L93.89-26.37L93.89-26.37Q92.22-23.74 91.71-20.35L91.71-20.35L88.38 0L75.14 1.28L81.66-32.64L92.22-33.92L91.07-27.46L91.07-27.46Q94.21-33.92 101.25-33.92L101.25-33.92L101.25-33.92Q104.96-33.92 106.98-32L106.98-32L106.98-32Q108.99-30.08 108.99-26.14L108.99-26.14L108.99-26.14Q108.99-22.21 106.40-19.71L106.40-19.71L106.40-19.71Q103.81-17.22 99.39-17.22L99.39-17.22L99.39-17.22Q97.47-17.22 96.70-17.98ZM111.04-6.40L111.04-6.40L111.04-6.40Q111.04-8.13 111.94-12.48L111.94-12.48L115.33-29.76L111.55-29.76L111.81-31.68L111.81-31.68Q119.49-33.98 126.91-39.62L126.91-39.62L129.98-39.62L128.45-32.64L133.44-32.64L132.86-29.76L127.94-29.76L124.67-12.48L124.67-12.48Q123.84-8.51 123.84-7.17L123.84-7.17L123.84-7.17Q123.84-4.10 126.53-3.46L126.53-3.46L126.53-3.46Q125.89-1.28 123.58 0L123.58 0L123.58 0Q121.28 1.28 118.02 1.28L118.02 1.28L118.02 1.28Q114.75 1.28 112.90-0.77L112.90-0.77L112.90-0.77Q111.04-2.82 111.04-6.40ZM158.78-10.82L158.78-10.82L158.78-10.82Q160.38-9.73 160.38-7.33L160.38-7.33L160.38-7.33Q160.38-4.93 159.17-3.39L159.17-3.39L159.17-3.39Q157.95-1.86 155.97-0.83L155.97-0.83L155.97-0.83Q151.87 1.28 147.46 1.28L147.46 1.28L147.46 1.28Q143.04 1.28 140.45 0.32L140.45 0.32L140.45 0.32Q137.86-0.64 136.13-2.43L136.13-2.43L136.13-2.43Q132.74-5.82 132.74-12.03L132.74-12.03L132.74-12.03Q132.74-21.70 137.98-27.58L137.98-27.58L137.98-27.58Q143.62-33.92 153.41-33.92L153.41-33.92L153.41-33.92Q159.49-33.92 162.50-31.36L162.50-31.36L162.50-31.36Q164.74-29.44 164.74-26.30L164.74-26.30L164.74-26.30Q164.74-15.04 145.28-15.04L145.28-15.04L145.28-15.04Q145.02-13.38 145.02-11.97L145.02-11.97L145.02-11.97Q145.02-9.02 146.34-7.90L146.34-7.90L146.34-7.90Q147.65-6.78 150.08-6.78L150.08-6.78L150.08-6.78Q152.51-6.78 155.10-7.90L155.10-7.90L155.10-7.90Q157.70-9.02 158.78-10.82ZM145.73-17.79L145.73-17.79L145.73-17.79Q150.27-17.79 152.90-20.61L152.90-20.61L152.90-20.61Q155.52-23.30 155.52-27.58L155.52-27.58L155.52-27.58Q155.52-29.06 154.98-29.86L154.98-29.86L154.98-29.86Q154.43-30.66 153.34-30.66L153.34-30.66L153.34-30.66Q152.26-30.66 151.33-30.24L151.33-30.24L151.33-30.24Q150.40-29.82 149.44-28.42L149.44-28.42L149.44-28.42Q147.07-25.22 145.73-17.79ZM169.70-1.92L169.70-1.92L169.70-1.92Q168.19-3.58 167.52-6.21L167.52-6.21L167.52-6.21Q166.85-8.83 166.85-13.12L166.85-13.12L166.85-13.12Q166.85-17.41 168.32-21.31L168.32-21.31L168.32-21.31Q169.79-25.22 172.48-28.03L172.48-28.03L172.48-28.03Q177.98-33.92 187.07-33.92L187.07-33.92L187.07-33.92Q190.34-33.92 192.70-32.83L192.70-32.83L203.65-33.92L198.91-8.96L198.91-8.96Q198.72-8.19 198.72-6.78L198.72-6.78L198.72-6.78Q198.72-5.38 199.58-4.48L199.58-4.48L199.58-4.48Q200.45-3.58 201.73-3.46L201.73-3.46L201.73-3.46Q201.09-1.28 198.75 0L198.75 0L198.75 0Q196.42 1.28 193.79 1.28L193.79 1.28L193.79 1.28Q191.17 1.28 189.41 0.29L189.41 0.29L189.41 0.29Q187.65-0.70 187.14-2.37L187.14-2.37L187.14-2.37Q186.11-0.77 183.94 0.26L183.94 0.26L183.94 0.26Q181.76 1.28 178.85 1.28L178.85 1.28L178.85 1.28Q175.94 1.28 173.57 0.51L173.57 0.51L173.57 0.51Q171.20-0.26 169.70-1.92ZM183.20-27.90L183.20-27.90L183.20-27.90Q182.46-26.75 181.82-24.80L181.82-24.80L181.82-24.80Q181.18-22.85 180.13-17.63L180.13-17.63L180.13-17.63Q179.07-12.42 179.07-8.70L179.07-8.70L179.07-8.70Q179.07-4.99 179.65-3.90L179.65-3.90L179.65-3.90Q180.22-2.82 181.25-2.82L181.25-2.82L181.25-2.82Q183.30-2.82 184.80-4.77L184.80-4.77L184.80-4.77Q186.30-6.72 186.88-10.18L186.88-10.18L190.27-28.93L190.27-28.93Q188.93-30.08 187.36-30.08L187.36-30.08L187.36-30.08Q185.79-30.08 184.86-29.57L184.86-29.57L184.86-29.57Q183.94-29.06 183.20-27.90ZM227.14-17.98L227.14-17.98L227.14-17.98Q229.44-22.08 229.44-26.24L229.44-26.24L229.44-26.24Q229.44-28.99 227.46-28.99L227.46-28.99L227.46-28.99Q225.92-28.99 224.32-26.37L224.32-26.37L224.32-26.37Q222.66-23.74 222.14-20.35L222.14-20.35L218.82 0L205.57 1.28L212.10-32.64L222.66-33.92L221.50-27.46L221.50-27.46Q224.64-33.92 231.68-33.92L231.68-33.92L231.68-33.92Q235.39-33.92 237.41-32L237.41-32L237.41-32Q239.42-30.08 239.42-26.14L239.42-26.14L239.42-26.14Q239.42-22.21 236.83-19.71L236.83-19.71L236.83-19.71Q234.24-17.22 229.82-17.22L229.82-17.22L229.82-17.22Q227.90-17.22 227.14-17.98Z" fill="#5699d2"></path></g></g><style>text {
  font-size: 64px;
  font-family: Arial Black;
  dominant-baseline: central;
  text-anchor: middle;
}</style></svg>